<svg width="17" height="17" viewBox="0 0 17 17" fill="none" xmlns="http://www.w3.org/2000/svg">
<path d="M8.54674 16C9.55525 16.0001 10.5535 15.7979 11.4826 15.4055C12.4116 15.0131 13.2525 14.4384 13.9556 13.7154C14.6587 12.9923 15.2097 12.1357 15.576 11.1961C15.9423 10.2564 16.1165 9.25287 16.0882 8.24476C15.0332 8.9791 13.7662 9.34666 12.4819 9.29095C11.1977 9.23524 9.96728 8.75934 8.9798 7.93638C7.99231 7.11343 7.3024 5.98897 7.01608 4.73581C6.72977 3.48265 6.8629 2.17014 7.39502 1C5.51592 1.28958 3.81544 2.27801 2.63383 3.76753C1.45221 5.25706 0.876598 7.13782 1.02215 9.03353C1.16771 10.9292 2.0237 12.7001 3.41886 13.9918C4.81402 15.2834 6.64545 16.0007 8.54674 16Z" stroke="#1A31B6" stroke-width="1.5" stroke-linecap="round" stroke-linejoin="round"/>
</svg>
