<svg width="10" height="18" viewBox="0 0 10 18" fill="none" xmlns="http://www.w3.org/2000/svg">
<path d="M4.84616 1.38462C4.29533 1.38462 3.76705 1.60343 3.37755 1.99293C2.98805 2.38243 2.76924 2.91071 2.76924 3.46154V10.3673L2.5387 10.5736C2.0161 11.041 1.64773 11.656 1.48233 12.3372C1.31693 13.0185 1.3623 13.734 1.61243 14.3889C1.86256 15.0439 2.30566 15.6074 2.8831 16.005C3.46053 16.4026 4.14508 16.6155 4.84616 16.6155C5.54724 16.6155 6.23179 16.4026 6.80922 16.005C7.38666 15.6074 7.82976 15.0439 8.07989 14.3889C8.33002 13.734 8.37539 13.0185 8.20999 12.3372C8.04459 11.656 7.67622 11.041 7.15362 10.5736L6.92308 10.3673V3.46154C6.92308 2.91071 6.70427 2.38243 6.31477 1.99293C5.92527 1.60343 5.39699 1.38462 4.84616 1.38462ZM1.38462 3.46154C1.38462 2.54348 1.74932 1.66303 2.39848 1.01386C3.04765 0.364697 3.9281 0 4.84616 0C5.76422 0 6.64467 0.364697 7.29384 1.01386C7.943 1.66303 8.3077 2.54348 8.3077 3.46154V9.76224C8.97555 10.4439 9.4273 11.3075 9.6063 12.2448C9.7853 13.1821 9.68358 14.1515 9.3139 15.0312C8.94423 15.911 8.32305 16.662 7.52825 17.1901C6.73346 17.7183 5.80043 18 4.84616 18C3.89189 18 2.95886 17.7183 2.16407 17.1901C1.36927 16.662 0.748091 15.911 0.378415 15.0312C0.00873873 14.1515 -0.0929766 13.1821 0.0860232 12.2448C0.265023 11.3075 0.71677 10.4439 1.38462 9.76224V3.46154ZM4.15385 6.23077C4.15385 6.04716 4.22679 5.87107 4.35662 5.74124C4.48646 5.61141 4.66255 5.53847 4.84616 5.53847C5.02977 5.53847 5.20586 5.61141 5.3357 5.74124C5.46553 5.87107 5.53847 6.04716 5.53847 6.23077V11.1946C6.00058 11.3579 6.39007 11.6794 6.6381 12.1021C6.88613 12.5248 6.97673 13.0216 6.89388 13.5047C6.81102 13.9878 6.56006 14.426 6.18534 14.7419C5.81062 15.0578 5.33628 15.2311 4.84616 15.2311C4.35604 15.2311 3.8817 15.0578 3.50698 14.7419C3.13226 14.426 2.88129 13.9878 2.79844 13.5047C2.71559 13.0216 2.80619 12.5248 3.05422 12.1021C3.30225 11.6794 3.69174 11.3579 4.15385 11.1946V6.23077Z" fill="#1A31B6"/>
</svg>
